<mxfile host="app.diagrams.net" modified="2021-06-09T07:24:52.708Z" agent="5.0 (Windows NT 10.0; Win64; x64) AppleWebKit/537.36 (KHTML, like Gecko) Chrome/91.0.4472.77 Safari/537.36" etag="C8z-MoljYg76q8B7RqKf" version="14.7.6" type="github">
  <diagram id="kgpKYQtTHZ0yAKxKKP6v" name="Page-1">
    <mxGraphModel dx="1342" dy="525" grid="1" gridSize="10" guides="1" tooltips="1" connect="1" arrows="1" fold="1" page="1" pageScale="1" pageWidth="850" pageHeight="1100" math="0" shadow="0">
      <root>
        <mxCell id="0" />
        <mxCell id="1" parent="0" />
        <mxCell id="3nuBFxr9cyL0pnOWT2aG-1" value="Products form" style="shape=umlLifeline;perimeter=lifelinePerimeter;container=1;collapsible=0;recursiveResize=0;rounded=0;shadow=0;strokeWidth=1;" parent="1" vertex="1">
          <mxGeometry x="190" y="80" width="100" height="400" as="geometry" />
        </mxCell>
        <mxCell id="3nuBFxr9cyL0pnOWT2aG-2" value="" style="points=[];perimeter=orthogonalPerimeter;rounded=0;shadow=0;strokeWidth=1;" parent="3nuBFxr9cyL0pnOWT2aG-1" vertex="1">
          <mxGeometry x="45" y="70" width="10" height="40" as="geometry" />
        </mxCell>
        <mxCell id="3nuBFxr9cyL0pnOWT2aG-4" value="" style="points=[];perimeter=orthogonalPerimeter;rounded=0;shadow=0;strokeWidth=1;" parent="3nuBFxr9cyL0pnOWT2aG-1" vertex="1">
          <mxGeometry x="45" y="120" width="10" height="80" as="geometry" />
        </mxCell>
        <mxCell id="3nuBFxr9cyL0pnOWT2aG-5" value="Process data" style="shape=umlLifeline;perimeter=lifelinePerimeter;container=1;collapsible=0;recursiveResize=0;rounded=0;shadow=0;strokeWidth=1;" parent="1" vertex="1">
          <mxGeometry x="430" y="80" width="90" height="400" as="geometry" />
        </mxCell>
        <mxCell id="3nuBFxr9cyL0pnOWT2aG-8" value="2: Lấy productId " style="verticalAlign=bottom;endArrow=block;entryX=0;entryY=0;shadow=0;strokeWidth=1;" parent="1" source="3nuBFxr9cyL0pnOWT2aG-2" edge="1">
          <mxGeometry x="0.087" relative="1" as="geometry">
            <mxPoint x="275" y="160" as="sourcePoint" />
            <mxPoint x="475" y="165.0000000000001" as="targetPoint" />
            <Array as="points">
              <mxPoint x="460" y="165" />
            </Array>
            <mxPoint as="offset" />
          </mxGeometry>
        </mxCell>
        <mxCell id="JpvdNjr_1IVaPtM_f79X-4" value="" style="edgeStyle=orthogonalEdgeStyle;rounded=0;orthogonalLoop=1;jettySize=auto;html=1;" edge="1" parent="1" source="JpvdNjr_1IVaPtM_f79X-3" target="3nuBFxr9cyL0pnOWT2aG-1">
          <mxGeometry relative="1" as="geometry">
            <Array as="points">
              <mxPoint x="70" y="150" />
              <mxPoint x="70" y="150" />
            </Array>
          </mxGeometry>
        </mxCell>
        <mxCell id="JpvdNjr_1IVaPtM_f79X-3" value="" style="html=1;points=[];perimeter=orthogonalPerimeter;" vertex="1" parent="1">
          <mxGeometry x="35" y="145" width="10" height="40" as="geometry" />
        </mxCell>
        <mxCell id="JpvdNjr_1IVaPtM_f79X-5" value="1: Click nút Purchase" style="text;html=1;align=center;verticalAlign=middle;resizable=0;points=[];autosize=1;strokeColor=none;" vertex="1" parent="1">
          <mxGeometry x="60" y="130" width="130" height="20" as="geometry" />
        </mxCell>
        <mxCell id="JpvdNjr_1IVaPtM_f79X-7" value="Product" style="shape=umlLifeline;perimeter=lifelinePerimeter;container=1;collapsible=0;recursiveResize=0;rounded=0;shadow=0;strokeWidth=1;" vertex="1" parent="1">
          <mxGeometry x="650" y="80" width="100" height="300" as="geometry" />
        </mxCell>
        <mxCell id="JpvdNjr_1IVaPtM_f79X-8" value="" style="points=[];perimeter=orthogonalPerimeter;rounded=0;shadow=0;strokeWidth=1;" vertex="1" parent="JpvdNjr_1IVaPtM_f79X-7">
          <mxGeometry x="45" y="110" width="10" height="40" as="geometry" />
        </mxCell>
        <mxCell id="JpvdNjr_1IVaPtM_f79X-22" value="3:  Lấy thông tin của Product (productId)" style="verticalAlign=bottom;endArrow=block;shadow=0;strokeWidth=1;" edge="1" parent="1">
          <mxGeometry x="0.0244" y="10" relative="1" as="geometry">
            <mxPoint x="485" y="190" as="sourcePoint" />
            <mxPoint x="690" y="190" as="targetPoint" />
            <mxPoint as="offset" />
          </mxGeometry>
        </mxCell>
        <mxCell id="JpvdNjr_1IVaPtM_f79X-28" style="edgeStyle=orthogonalEdgeStyle;rounded=0;orthogonalLoop=1;jettySize=auto;html=1;" edge="1" parent="1" source="JpvdNjr_1IVaPtM_f79X-23">
          <mxGeometry relative="1" as="geometry">
            <mxPoint x="489" y="260" as="targetPoint" />
            <Array as="points">
              <mxPoint x="550" y="230" />
              <mxPoint x="550" y="260" />
            </Array>
          </mxGeometry>
        </mxCell>
        <mxCell id="JpvdNjr_1IVaPtM_f79X-23" value="" style="html=1;points=[];perimeter=orthogonalPerimeter;" vertex="1" parent="1">
          <mxGeometry x="475" y="190" width="10" height="200" as="geometry" />
        </mxCell>
        <mxCell id="JpvdNjr_1IVaPtM_f79X-25" value="" style="shape=umlLifeline;participant=umlActor;perimeter=lifelinePerimeter;whiteSpace=wrap;html=1;container=1;collapsible=0;recursiveResize=0;verticalAlign=top;spacingTop=36;outlineConnect=0;direction=south;rotation=-90;" vertex="1" parent="1">
          <mxGeometry x="-155" y="265" width="390" height="20" as="geometry" />
        </mxCell>
        <mxCell id="JpvdNjr_1IVaPtM_f79X-26" value="Customer" style="text;html=1;align=center;verticalAlign=middle;resizable=0;points=[];autosize=1;strokeColor=none;" vertex="1" parent="1">
          <mxGeometry x="5" y="120" width="70" height="20" as="geometry" />
        </mxCell>
        <mxCell id="JpvdNjr_1IVaPtM_f79X-27" value="" style="html=1;points=[];perimeter=orthogonalPerimeter;" vertex="1" parent="1">
          <mxGeometry x="475" y="160" width="10" height="25" as="geometry" />
        </mxCell>
        <mxCell id="JpvdNjr_1IVaPtM_f79X-29" value="4: Tạo order (giỏ hàng)" style="text;html=1;align=center;verticalAlign=middle;resizable=0;points=[];autosize=1;strokeColor=none;" vertex="1" parent="1">
          <mxGeometry x="475" y="210" width="140" height="20" as="geometry" />
        </mxCell>
        <mxCell id="JpvdNjr_1IVaPtM_f79X-30" style="edgeStyle=orthogonalEdgeStyle;rounded=0;orthogonalLoop=1;jettySize=auto;html=1;" edge="1" parent="1">
          <mxGeometry relative="1" as="geometry">
            <mxPoint x="488" y="299" as="sourcePoint" />
            <mxPoint x="492" y="328" as="targetPoint" />
            <Array as="points">
              <mxPoint x="530" y="299" />
              <mxPoint x="530" y="329" />
            </Array>
          </mxGeometry>
        </mxCell>
        <mxCell id="JpvdNjr_1IVaPtM_f79X-31" value="5: Thêm sản phẩm vào ds order (My orders)" style="text;html=1;align=center;verticalAlign=middle;resizable=0;points=[];autosize=1;strokeColor=none;" vertex="1" parent="1">
          <mxGeometry x="485" y="280" width="250" height="20" as="geometry" />
        </mxCell>
        <mxCell id="JpvdNjr_1IVaPtM_f79X-32" value="Database Orders" style="shape=umlLifeline;perimeter=lifelinePerimeter;container=1;collapsible=0;recursiveResize=0;rounded=0;shadow=0;strokeWidth=1;" vertex="1" parent="1">
          <mxGeometry x="810" y="80" width="90" height="380" as="geometry" />
        </mxCell>
        <mxCell id="JpvdNjr_1IVaPtM_f79X-34" value="6: Lưu  dữ liệu vào database " style="verticalAlign=bottom;endArrow=block;shadow=0;strokeWidth=1;entryX=-0.3;entryY=0.025;entryDx=0;entryDy=0;entryPerimeter=0;" edge="1" parent="1" target="JpvdNjr_1IVaPtM_f79X-33">
          <mxGeometry x="-0.2157" y="1" relative="1" as="geometry">
            <mxPoint x="490" y="361" as="sourcePoint" />
            <mxPoint x="860" y="360" as="targetPoint" />
            <mxPoint as="offset" />
          </mxGeometry>
        </mxCell>
        <mxCell id="JpvdNjr_1IVaPtM_f79X-33" value="" style="points=[];perimeter=orthogonalPerimeter;rounded=0;shadow=0;strokeWidth=1;" vertex="1" parent="1">
          <mxGeometry x="850" y="360" width="10" height="40" as="geometry" />
        </mxCell>
        <mxCell id="JpvdNjr_1IVaPtM_f79X-39" style="edgeStyle=orthogonalEdgeStyle;rounded=0;orthogonalLoop=1;jettySize=auto;html=1;entryX=1;entryY=0.65;entryDx=0;entryDy=0;entryPerimeter=0;" edge="1" parent="1">
          <mxGeometry relative="1" as="geometry">
            <mxPoint x="45" y="423" as="targetPoint" />
            <mxPoint x="235" y="407" as="sourcePoint" />
            <Array as="points">
              <mxPoint x="235" y="423" />
            </Array>
          </mxGeometry>
        </mxCell>
        <mxCell id="JpvdNjr_1IVaPtM_f79X-35" value="" style="html=1;points=[];perimeter=orthogonalPerimeter;" vertex="1" parent="1">
          <mxGeometry x="235" y="380" width="10" height="60" as="geometry" />
        </mxCell>
        <mxCell id="JpvdNjr_1IVaPtM_f79X-37" value="7: Lấy kết quả " style="verticalAlign=bottom;endArrow=block;shadow=0;strokeWidth=1;" edge="1" parent="1">
          <mxGeometry x="0.1714" y="-9" relative="1" as="geometry">
            <mxPoint x="475" y="389" as="sourcePoint" />
            <mxPoint x="244.5" y="389" as="targetPoint" />
            <mxPoint as="offset" />
            <Array as="points">
              <mxPoint x="360" y="389" />
            </Array>
          </mxGeometry>
        </mxCell>
        <mxCell id="JpvdNjr_1IVaPtM_f79X-38" value="" style="html=1;points=[];perimeter=orthogonalPerimeter;" vertex="1" parent="1">
          <mxGeometry x="35" y="420" width="10" height="30" as="geometry" />
        </mxCell>
        <mxCell id="JpvdNjr_1IVaPtM_f79X-40" value="8: Hiển thị kết quả" style="text;html=1;align=center;verticalAlign=middle;resizable=0;points=[];autosize=1;strokeColor=none;" vertex="1" parent="1">
          <mxGeometry x="70" y="400" width="110" height="20" as="geometry" />
        </mxCell>
      </root>
    </mxGraphModel>
  </diagram>
</mxfile>
